<svg width="1200" height="630" viewBox="0 0 1200 630" fill="none" xmlns="http://www.w3.org/2000/svg" role="img" aria-label="Trace 打开应用">
  <defs>
    <linearGradient id="paper" x1="0" y1="0" x2="1200" y2="630" gradientUnits="userSpaceOnUse">
      <stop stop-color="#F8F1E6"/>
      <stop offset="1" stop-color="#E9DCC6"/>
    </linearGradient>
    <radialGradient id="signal" cx="0" cy="0" r="1" gradientUnits="userSpaceOnUse" gradientTransform="translate(905 190) rotate(127) scale(440 370)">
      <stop stop-color="#E4773B" stop-opacity="0.72"/>
      <stop offset="1" stop-color="#E4773B" stop-opacity="0"/>
    </radialGradient>
    <filter id="soft" x="470" y="86" width="530" height="470" filterUnits="userSpaceOnUse" color-interpolation-filters="sRGB">
      <feFlood flood-opacity="0" result="BackgroundImageFix"/>
      <feColorMatrix in="SourceAlpha" type="matrix" values="0 0 0 0 0 0 0 0 0 0 0 0 0 0 0 0 0 0 127 0" result="hardAlpha"/>
      <feOffset dy="34"/>
      <feGaussianBlur stdDeviation="34"/>
      <feComposite in2="hardAlpha" operator="out"/>
      <feColorMatrix type="matrix" values="0 0 0 0 0.043 0 0 0 0 0.122 0 0 0 0 0.133 0 0 0 0.24 0"/>
      <feBlend mode="normal" in2="BackgroundImageFix" result="effect1_dropShadow_1_2"/>
      <feBlend mode="normal" in="SourceGraphic" in2="effect1_dropShadow_1_2" result="shape"/>
    </filter>
  </defs>
  <rect width="1200" height="630" rx="54" fill="url(#paper)"/>
  <rect width="1200" height="630" rx="54" fill="url(#signal)"/>
  <path d="M0 476C153 410 262 429 415 509C570 590 754 658 1200 508V630H0V476Z" fill="#102B2F" fill-opacity="0.08"/>
  <g opacity="0.16">
    <path d="M93 96H1107" stroke="#0B1F22"/>
    <path d="M93 174H1107" stroke="#0B1F22"/>
    <path d="M93 252H1107" stroke="#0B1F22"/>
    <path d="M93 330H1107" stroke="#0B1F22"/>
    <path d="M93 408H1107" stroke="#0B1F22"/>
    <path d="M93 486H1107" stroke="#0B1F22"/>
    <path d="M186 54V576" stroke="#0B1F22"/>
    <path d="M372 54V576" stroke="#0B1F22"/>
    <path d="M558 54V576" stroke="#0B1F22"/>
    <path d="M744 54V576" stroke="#0B1F22"/>
    <path d="M930 54V576" stroke="#0B1F22"/>
  </g>
  <g filter="url(#soft)">
    <rect x="560" y="116" width="328" height="394" rx="50" fill="#0B1F22"/>
    <rect x="582" y="145" width="284" height="336" rx="34" fill="#F9F2E7"/>
    <path d="M624 382C657 318 694 322 728 353C766 388 808 362 837 299" stroke="#D85F2A" stroke-width="16" stroke-linecap="round"/>
    <path d="M624 407H836" stroke="#0B1F22" stroke-opacity="0.18" stroke-width="8" stroke-linecap="round"/>
    <path d="M624 433H790" stroke="#0B1F22" stroke-opacity="0.18" stroke-width="8" stroke-linecap="round"/>
    <circle cx="724" cy="233" r="60" fill="#D85F2A" fill-opacity="0.18"/>
    <path d="M724 176V290M685 207L724 233L763 207M685 259L724 233L763 259" stroke="#D85F2A" stroke-width="12" stroke-linecap="round" stroke-linejoin="round"/>
  </g>
  <g>
    <path d="M945 221C985 259 985 371 945 409" stroke="#D85F2A" stroke-width="18" stroke-linecap="round"/>
    <path d="M994 174C1066 242 1066 388 994 456" stroke="#D85F2A" stroke-width="18" stroke-linecap="round" opacity="0.46"/>
    <path d="M1041 127C1144 224 1144 406 1041 503" stroke="#D85F2A" stroke-width="18" stroke-linecap="round" opacity="0.22"/>
  </g>
  <text x="92" y="188" fill="#9F3E1B" font-family="Avenir Next, PingFang SC, Microsoft YaHei, sans-serif" font-size="30" font-weight="800" letter-spacing="7">BLE RIDE MONITOR</text>
  <text x="86" y="340" fill="#0B1F22" font-family="Georgia, Songti SC, serif" font-size="168" font-weight="700" letter-spacing="-18">Trace</text>
  <text x="96" y="414" fill="#223635" font-family="Avenir Next, PingFang SC, Microsoft YaHei, sans-serif" font-size="38" font-weight="600">打开骑行数据与蓝牙设备监控应用</text>
  <rect x="96" y="462" width="216" height="64" rx="32" fill="#0B1F22"/>
  <text x="139" y="505" fill="#FFF8ED" font-family="Avenir Next, PingFang SC, Microsoft YaHei, sans-serif" font-size="26" font-weight="700">打开 App</text>
</svg>
